<svg data-v-423bf9ae="" xmlns="http://www.w3.org/2000/svg" viewBox="0 0 265 103" class="iconLeft"><!----><!----><!----><g data-v-423bf9ae="" id="c6e4841a-854e-4587-86bf-8183e0a44ca3" fill="black" transform="matrix(6.54307587140309,0,0,6.54307587140309,117.2531625953738,-32.58192219067125)"><path d="M4.45 12.26L7.21 12.26L7.21 16.87L7.21 16.87Q6.52 17.15 5.76 17.27L5.76 17.27L5.76 17.27Q5.00 17.39 3.95 17.39L3.95 17.39L3.95 17.39Q2.63 17.39 1.97 17.02L1.97 17.02L1.97 17.02Q1.32 16.66 1.06 15.70L1.06 15.70L1.06 15.70Q0.80 14.74 0.80 12.81L0.80 12.81L0.80 12.81Q0.80 10.95 1.10 9.98L1.10 9.98L1.10 9.98Q1.40 9.00 2.16 8.61L2.16 8.61L2.16 8.61Q2.91 8.22 4.38 8.22L4.38 8.22L4.38 8.22Q4.97 8.22 5.71 8.31L5.71 8.31L5.71 8.31Q6.44 8.40 6.86 8.53L6.86 8.53L6.64 9.93L6.64 9.93Q6.09 9.81 5.36 9.74L5.36 9.74L5.36 9.74Q4.63 9.66 4.16 9.66L4.16 9.66L4.16 9.66Q3.30 9.66 2.97 9.87L2.97 9.87L2.97 9.87Q2.63 10.08 2.63 10.71L2.63 10.71L2.63 16.00L5.64 16.00L5.64 13.58L4.45 13.58L4.45 12.26ZM14.57 17.02L14.57 17.02Q14.07 17.22 13.50 17.30L13.50 17.30L13.50 17.30Q12.92 17.39 12.14 17.39L12.14 17.39L12.14 17.39Q10.78 17.39 10.07 16.99L10.07 16.99L10.07 16.99Q9.35 16.59 9.07 15.62L9.07 15.62L9.07 15.62Q8.79 14.64 8.79 12.81L8.79 12.81L8.79 12.81Q8.79 10.96 9.09 9.99L9.09 9.99L9.09 9.99Q9.39 9.02 10.14 8.62L10.14 8.62L10.14 8.62Q10.88 8.22 12.32 8.22L12.32 8.22L12.32 8.22Q12.81 8.22 13.45 8.31L13.45 8.31L13.45 8.31Q14.08 8.40 14.43 8.53L14.43 8.53L14.21 9.93L14.21 9.93Q13.75 9.81 13.13 9.74L13.13 9.74L13.13 9.74Q12.52 9.66 12.12 9.66L12.12 9.66L12.12 9.66Q11.30 9.66 10.97 9.87L10.97 9.87L10.97 9.87Q10.64 10.08 10.64 10.71L10.64 10.71L10.64 15.76L10.64 15.76Q11.37 15.95 12.18 15.95L12.18 15.95L12.18 15.95Q13.30 15.95 14.42 15.60L14.42 15.60L14.57 17.02ZM21.17 12.75L21.17 12.75Q21.78 12.95 22.13 13.48L22.13 13.48L22.13 13.48Q22.48 14 22.48 14.71L22.48 14.71L22.48 14.71Q22.48 15.90 21.85 16.54L21.85 16.54L21.85 16.54Q21.21 17.18 20.01 17.18L20.01 17.18L16.04 17.18L16.04 8.43L19.54 8.43L19.54 8.43Q20.85 8.43 21.45 8.96L21.45 8.96L21.45 8.96Q22.05 9.49 22.05 10.63L22.05 10.63L22.05 10.63Q22.05 11.37 21.83 11.87L21.83 11.87L21.83 11.87Q21.62 12.38 21.17 12.67L21.17 12.67L21.17 12.75ZM20.34 10.93L20.34 10.93Q20.34 10.22 20.13 9.95L20.13 9.95L20.13 9.95Q19.92 9.69 19.35 9.69L19.35 9.69L17.77 9.69L17.77 12.15L19.33 12.15L19.33 12.15Q19.91 12.15 20.13 11.89L20.13 11.89L20.13 11.89Q20.34 11.62 20.34 10.93L20.34 10.93ZM19.71 15.92L19.71 15.92Q20.27 15.92 20.51 15.62L20.51 15.62L20.51 15.62Q20.75 15.32 20.75 14.59L20.75 14.59L20.75 14.59Q20.75 13.92 20.52 13.64L20.52 13.64L20.52 13.64Q20.29 13.37 19.73 13.37L19.73 13.37L17.77 13.37L17.77 15.92L19.71 15.92Z"></path></g><!----><g data-v-423bf9ae="" id="070a778e-e813-4b69-a39e-4e91045c48ae" transform="matrix(1.066689215766059,0,0,1.066689215766059,0.7585969002224928,0.7979704485538548)" stroke="none" fill="black"><path d="M14.044 24a2 2 0 0 0-2 2v36a2 2 0 0 0 2 2h12a2 2 0 0 0 2-2V26a2 2 0 0 0-2-2h-12zM70.044 24a2 2 0 0 0-2 2v36a2 2 0 0 0 2 2h12a2 2 0 0 0 2-2V26a2 2 0 0 0-2-2h-12zM1.96 20h92.08c1.101 0 2-.896 2-2 0-.988-.72-1.808-1.66-1.972L48.616.112a1.944 1.944 0 0 0-1.312 0l-46 16A2 2 0 0 0 1.96 20zM48.645 61.404c.359.405.878.596 1.399.596s1.04-.195 1.404-.596c.403-.36.596-.881.596-1.404v-2.344c3.008-.916 4.968-3.448 4.968-6.813 0-4.348-2.508-5.748-5.68-7.512l-1.756-.984c-3.204-1.792-3.612-2.132-3.612-4.016 0-2.936 2.468-3.256 3.528-3.256 1.287 0 3.443.424 3.443 3.256a2 2 0 0 0 4 0c0-3.436-1.899-5.956-4.896-6.864V28h-.032c-.04-.464-.216-.916-.576-1.24-.72-.76-2.08-.76-2.8 0-.348.324-.52.776-.56 1.24h-.028v3.192c-3.64.58-6.084 3.344-6.084 7.132 0 4.344 2.5 5.744 5.664 7.508l1.756.988c3.224 1.792 3.628 2.136 3.628 4.02 0 2.796-2.208 3.212-3.523 3.212-1.32 0-3.528-.416-3.528-3.212a2 2 0 0 0-4 0c0 3.828 2.396 6.532 6.084 7.088V60c.004.523.204 1.04.605 1.404zM88.044 76v-6c0-1.1-.896-2-2-2h-76c-1.104 0-2 .9-2 2v6h80zM94.044 80h-92c-1.104 0-2 .9-2 2v12a2 2 0 0 0 2 2h92a2 2 0 0 0 2-2V82c0-1.1-.896-2-2-2z"></path></g><!----></svg>