<svg data-v-423bf9ae="" xmlns="http://www.w3.org/2000/svg" viewBox="0 0 141.8538868888073 60" class="font"><!----><!----><!----><g data-v-423bf9ae="" id="32d4416b-2429-4bdc-9527-bde55d328e8a" fill="black" transform="matrix(6.54307587140309,0,0,6.54307587140309,-5.234462526696518,-53.78408588696031)"><path d="M4.45 12.26L7.21 12.26L7.21 16.87L7.21 16.87Q6.52 17.15 5.76 17.27L5.76 17.27L5.76 17.27Q5.00 17.39 3.95 17.39L3.95 17.39L3.95 17.39Q2.63 17.39 1.97 17.02L1.97 17.02L1.97 17.02Q1.32 16.66 1.06 15.70L1.06 15.70L1.06 15.70Q0.80 14.74 0.80 12.81L0.80 12.81L0.80 12.81Q0.80 10.95 1.10 9.98L1.10 9.98L1.10 9.98Q1.40 9.00 2.16 8.61L2.16 8.61L2.16 8.61Q2.91 8.22 4.38 8.22L4.38 8.22L4.38 8.22Q4.97 8.22 5.71 8.31L5.71 8.31L5.71 8.31Q6.44 8.40 6.86 8.53L6.86 8.53L6.64 9.93L6.64 9.93Q6.09 9.81 5.36 9.74L5.36 9.74L5.36 9.74Q4.63 9.66 4.16 9.66L4.16 9.66L4.16 9.66Q3.30 9.66 2.97 9.87L2.97 9.87L2.97 9.87Q2.63 10.08 2.63 10.71L2.63 10.71L2.63 16.00L5.64 16.00L5.64 13.58L4.45 13.58L4.45 12.26ZM14.57 17.02L14.57 17.02Q14.07 17.22 13.50 17.30L13.50 17.30L13.50 17.30Q12.92 17.39 12.14 17.39L12.14 17.39L12.14 17.39Q10.78 17.39 10.07 16.99L10.07 16.99L10.07 16.99Q9.35 16.59 9.07 15.62L9.07 15.62L9.07 15.62Q8.79 14.64 8.79 12.81L8.79 12.81L8.79 12.81Q8.79 10.96 9.09 9.99L9.09 9.99L9.09 9.99Q9.39 9.02 10.14 8.62L10.14 8.62L10.14 8.62Q10.88 8.22 12.32 8.22L12.32 8.22L12.32 8.22Q12.81 8.22 13.45 8.31L13.45 8.31L13.45 8.31Q14.08 8.40 14.43 8.53L14.43 8.53L14.21 9.93L14.21 9.93Q13.75 9.81 13.13 9.74L13.13 9.74L13.13 9.74Q12.52 9.66 12.12 9.66L12.12 9.66L12.12 9.66Q11.30 9.66 10.97 9.87L10.97 9.87L10.97 9.87Q10.64 10.08 10.64 10.71L10.64 10.71L10.64 15.76L10.64 15.76Q11.37 15.95 12.18 15.95L12.18 15.95L12.18 15.95Q13.30 15.95 14.42 15.60L14.42 15.60L14.57 17.02ZM21.17 12.75L21.17 12.75Q21.78 12.95 22.13 13.48L22.13 13.48L22.13 13.48Q22.48 14 22.48 14.71L22.48 14.71L22.48 14.71Q22.48 15.90 21.85 16.54L21.85 16.54L21.85 16.54Q21.21 17.18 20.01 17.18L20.01 17.18L16.04 17.18L16.04 8.43L19.54 8.43L19.54 8.43Q20.85 8.43 21.45 8.96L21.45 8.96L21.45 8.96Q22.05 9.49 22.05 10.63L22.05 10.63L22.05 10.63Q22.05 11.37 21.83 11.87L21.83 11.87L21.83 11.87Q21.62 12.38 21.17 12.67L21.17 12.67L21.17 12.75ZM20.34 10.93L20.34 10.93Q20.34 10.22 20.13 9.95L20.13 9.95L20.13 9.95Q19.92 9.69 19.35 9.69L19.35 9.69L17.77 9.69L17.77 12.15L19.33 12.15L19.33 12.15Q19.91 12.15 20.13 11.89L20.13 11.89L20.13 11.89Q20.34 11.62 20.34 10.93L20.34 10.93ZM19.71 15.92L19.71 15.92Q20.27 15.92 20.51 15.62L20.51 15.62L20.51 15.62Q20.75 15.32 20.75 14.59L20.75 14.59L20.75 14.59Q20.75 13.92 20.52 13.64L20.52 13.64L20.52 13.64Q20.29 13.37 19.73 13.37L19.73 13.37L17.77 13.37L17.77 15.92L19.71 15.92Z"></path></g><!----><!----></svg>