<svg data-v-423bf9ae="" xmlns="http://www.w3.org/2000/svg" viewBox="0 0 703 90" class="iconLeft"><!----><defs data-v-423bf9ae=""><linearGradient data-v-423bf9ae="" gradientTransform="rotate(25)" id="0e1e5fee-312a-4027-b9e5-d8d200cb1fc0" x1="0%" y1="0%" x2="100%" y2="0%"><stop data-v-423bf9ae="" offset="0%" style="stop-color: rgb(10, 55, 50); stop-opacity: 1;"></stop><stop data-v-423bf9ae="" offset="100%" style="stop-color: rgb(85, 195, 136); stop-opacity: 1;"></stop></linearGradient></defs><!----><g data-v-423bf9ae="" id="56b1e44b-3563-40d5-bf88-3f2b3f81c19c" fill="#ffffff" transform="matrix(5.4446458718365625,0,0,5.4446458718365625,107.6588138723011,16.361159560610506)"><path d="M3.58 10.50L0.43 10.50L0.43 8.68L1.02 8.68L1.02 1.83L0.43 1.83L0.43 0L3.82 0L3.82 4.05L3.82 4.05Q3.93 3.91 4.14 3.79L4.14 3.79L4.14 3.79Q4.34 3.67 4.59 3.58L4.59 3.58L4.59 3.58Q4.84 3.49 5.12 3.44L5.12 3.44L5.12 3.44Q5.40 3.39 5.66 3.39L5.66 3.39L5.66 3.39Q6.45 3.39 7.06 3.70L7.06 3.70L7.06 3.70Q7.67 4.00 8.08 4.51L8.08 4.51L8.08 4.51Q8.48 5.03 8.69 5.69L8.69 5.69L8.69 5.69Q8.89 6.36 8.88 7.06L8.88 7.06L8.88 7.06Q8.86 7.87 8.63 8.53L8.63 8.53L8.63 8.53Q8.40 9.20 7.98 9.67L7.98 9.67L7.98 9.67Q7.56 10.14 6.97 10.39L6.97 10.39L6.97 10.39Q6.38 10.65 5.64 10.65L5.64 10.65L5.64 10.65Q5.24 10.65 4.96 10.61L4.96 10.61L4.96 10.61Q4.68 10.56 4.47 10.46L4.47 10.46L4.47 10.46Q4.26 10.37 4.09 10.26L4.09 10.26L4.09 10.26Q3.93 10.15 3.79 10.02L3.79 10.02L3.58 10.50ZM5.80 7.08L5.80 7.08L5.80 7.08Q5.80 6.78 5.73 6.46L5.73 6.46L5.73 6.46Q5.66 6.15 5.52 5.91L5.52 5.91L5.52 5.91Q5.39 5.67 5.20 5.52L5.20 5.52L5.20 5.52Q5.01 5.36 4.79 5.36L4.79 5.36L4.79 5.36Q4.58 5.36 4.39 5.49L4.39 5.49L4.39 5.49Q4.20 5.61 4.06 5.84L4.06 5.84L4.06 5.84Q3.92 6.08 3.84 6.41L3.84 6.41L3.84 6.41Q3.77 6.73 3.79 7.15L3.79 7.15L3.79 7.15Q3.79 7.52 3.88 7.82L3.88 7.82L3.88 7.82Q3.96 8.12 4.10 8.35L4.10 8.35L4.10 8.35Q4.24 8.58 4.42 8.71L4.42 8.71L4.42 8.71Q4.61 8.83 4.80 8.83L4.80 8.83L4.80 8.83Q5.25 8.83 5.52 8.36L5.52 8.36L5.52 8.36Q5.80 7.88 5.80 7.08ZM13.45 8.67L13.45 10.50L9.53 10.50L9.53 8.67L10.12 8.67L10.12 5.32L9.53 5.32L9.53 3.50L12.78 3.50L12.78 8.67L13.45 8.67ZM9.93 1.46L9.93 1.46L9.93 1.46Q9.93 1.22 10.02 0.97L10.02 0.97L10.02 0.97Q10.12 0.71 10.31 0.50L10.31 0.50L10.31 0.50Q10.50 0.29 10.79 0.16L10.79 0.16L10.79 0.16Q11.07 0.03 11.44 0.03L11.44 0.03L11.44 0.03Q11.80 0.03 12.09 0.16L12.09 0.16L12.09 0.16Q12.38 0.29 12.57 0.50L12.57 0.50L12.57 0.50Q12.77 0.71 12.87 0.97L12.87 0.97L12.87 0.97Q12.98 1.22 12.98 1.46L12.98 1.46L12.98 1.46Q12.98 2.04 12.59 2.46L12.59 2.46L12.59 2.46Q12.19 2.87 11.44 2.87L11.44 2.87L11.44 2.87Q11.10 2.87 10.83 2.74L10.83 2.74L10.83 2.74Q10.56 2.62 10.35 2.41L10.35 2.41L10.35 2.41Q10.15 2.21 10.04 1.96L10.04 1.96L10.04 1.96Q9.93 1.71 9.93 1.46ZM14.90 5.71L14.31 4.09L14.31 4.09Q14.52 3.96 14.84 3.79L14.84 3.79L14.84 3.79Q15.16 3.63 15.56 3.46L15.56 3.46L15.56 3.46Q15.96 3.30 16.42 3.20L16.42 3.20L16.42 3.20Q16.87 3.09 17.36 3.09L17.36 3.09L17.36 3.09Q17.99 3.09 18.66 3.23L18.66 3.23L18.66 3.23Q19.33 3.36 19.89 3.69L19.89 3.69L19.89 3.69Q20.44 4.02 20.80 4.58L20.80 4.58L20.80 4.58Q21.15 5.14 21.15 5.98L21.15 5.98L21.15 8.71L21.99 8.71L21.99 10.50L19.00 10.50L18.66 9.87L18.66 9.87Q18.47 10.14 18.22 10.31L18.22 10.31L18.22 10.31Q17.98 10.49 17.72 10.58L17.72 10.58L17.72 10.58Q17.46 10.68 17.21 10.72L17.21 10.72L17.21 10.72Q16.95 10.77 16.77 10.77L16.77 10.77L16.77 10.77Q16.27 10.77 15.78 10.63L15.78 10.63L15.78 10.63Q15.29 10.49 14.90 10.21L14.90 10.21L14.90 10.21Q14.50 9.93 14.26 9.48L14.26 9.48L14.26 9.48Q14.01 9.04 14.01 8.43L14.01 8.43L14.01 8.43Q14.01 7.84 14.25 7.36L14.25 7.36L14.25 7.36Q14.48 6.89 14.88 6.55L14.88 6.55L14.88 6.55Q15.27 6.22 15.81 6.03L15.81 6.03L15.81 6.03Q16.34 5.85 16.93 5.85L16.93 5.85L16.93 5.85Q17.23 5.85 17.48 5.92L17.48 5.92L17.48 5.92Q17.72 5.98 17.90 6.06L17.90 6.06L17.90 6.06Q18.07 6.15 18.18 6.23L18.18 6.23L18.18 6.23Q18.28 6.31 18.31 6.34L18.31 6.34L18.31 5.85L18.31 5.85Q18.31 5.38 17.93 5.22L17.93 5.22L17.93 5.22Q17.56 5.07 16.98 5.07L16.98 5.07L16.98 5.07Q16.35 5.07 15.83 5.28L15.83 5.28L15.83 5.28Q15.30 5.49 14.90 5.71L14.90 5.71ZM17.42 8.95L17.42 8.95L17.42 8.95Q17.74 8.95 17.98 8.79L17.98 8.79L17.98 8.79Q18.21 8.64 18.31 8.48L18.31 8.48L18.31 7.95L18.31 7.95Q18.30 7.92 18.25 7.86L18.25 7.86L18.25 7.86Q18.20 7.80 18.10 7.73L18.10 7.73L18.10 7.73Q18.00 7.66 17.86 7.60L17.86 7.60L17.86 7.60Q17.71 7.55 17.49 7.55L17.49 7.55L17.49 7.55Q17.07 7.55 16.87 7.76L16.87 7.76L16.87 7.76Q16.67 7.97 16.67 8.29L16.67 8.29L16.67 8.29Q16.67 8.58 16.88 8.76L16.88 8.76L16.88 8.76Q17.09 8.95 17.42 8.95ZM27.96 0.10L27.12 1.71L27.12 1.71Q27.01 1.65 26.82 1.61L26.82 1.61L26.82 1.61Q26.63 1.57 26.35 1.57L26.35 1.57L26.35 1.57Q25.90 1.57 25.90 2.31L25.90 2.31L25.90 3.50L27.17 3.50L27.17 5.32L25.90 5.32L25.90 8.67L26.74 8.67L26.74 10.50L22.57 10.50L22.57 8.67L23.13 8.67L23.13 5.32L22.55 5.32L22.55 3.50L23.13 3.50L23.13 2.31L23.13 2.31Q23.13 2.02 23.21 1.57L23.21 1.57L23.21 1.57Q23.28 1.13 23.57 0.73L23.57 0.73L23.57 0.73Q23.86 0.32 24.40 0.04L24.40 0.04L24.40 0.04Q24.95-0.25 25.90-0.25L25.90-0.25L25.90-0.25Q26.17-0.25 26.47-0.22L26.47-0.22L26.47-0.22Q26.78-0.20 27.06-0.15L27.06-0.15L27.06-0.15Q27.34-0.10 27.58-0.04L27.58-0.04L27.58-0.04Q27.82 0.03 27.96 0.10L27.96 0.10ZM31.88 8.67L31.88 10.50L27.96 10.50L27.96 8.67L28.55 8.67L28.55 5.32L27.96 5.32L27.96 3.50L31.21 3.50L31.21 8.67L31.88 8.67ZM28.35 1.46L28.35 1.46L28.35 1.46Q28.35 1.22 28.45 0.97L28.45 0.97L28.45 0.97Q28.55 0.71 28.73 0.50L28.73 0.50L28.73 0.50Q28.92 0.29 29.21 0.16L29.21 0.16L29.21 0.16Q29.50 0.03 29.86 0.03L29.86 0.03L29.86 0.03Q30.23 0.03 30.51 0.16L30.51 0.16L30.51 0.16Q30.80 0.29 31.00 0.50L31.00 0.50L31.00 0.50Q31.19 0.71 31.30 0.97L31.30 0.97L31.30 0.97Q31.40 1.22 31.40 1.46L31.40 1.46L31.40 1.46Q31.40 2.04 31.01 2.46L31.01 2.46L31.01 2.46Q30.62 2.87 29.86 2.87L29.86 2.87L29.86 2.87Q29.53 2.87 29.25 2.74L29.25 2.74L29.25 2.74Q28.98 2.62 28.78 2.41L28.78 2.41L28.78 2.41Q28.57 2.21 28.46 1.96L28.46 1.96L28.46 1.96Q28.35 1.71 28.35 1.46ZM36.89 8.67L36.89 10.50L32.58 10.50L32.58 8.67L33.17 8.67L33.17 5.32L32.58 5.32L32.58 3.50L35.56 3.50L35.88 4.37L35.88 4.37Q36.25 3.88 36.73 3.56L36.73 3.56L36.73 3.56Q37.21 3.25 37.88 3.25L37.88 3.25L37.88 3.25Q38.70 3.25 39.19 3.52L39.19 3.52L39.19 3.52Q39.69 3.79 39.96 4.23L39.96 4.23L39.96 4.23Q40.24 4.68 40.33 5.23L40.33 5.23L40.33 5.23Q40.42 5.78 40.42 6.33L40.42 6.33L40.42 8.67L41.08 8.67L41.08 10.50L37.55 10.50L37.55 6.68L37.55 6.68Q37.55 6.50 37.54 6.27L37.54 6.27L37.54 6.27Q37.53 6.05 37.46 5.85L37.46 5.85L37.46 5.85Q37.39 5.66 37.23 5.52L37.23 5.52L37.23 5.52Q37.07 5.38 36.76 5.38L36.76 5.38L36.76 5.38Q36.50 5.38 36.32 5.50L36.32 5.50L36.32 5.50Q36.15 5.61 36.05 5.80L36.05 5.80L36.05 5.80Q35.95 5.99 35.92 6.22L35.92 6.22L35.92 6.22Q35.88 6.45 35.88 6.68L35.88 6.68L35.88 8.67L36.89 8.67ZM42.38 5.71L41.79 4.09L41.79 4.09Q42 3.96 42.32 3.79L42.32 3.79L42.32 3.79Q42.64 3.63 43.04 3.46L43.04 3.46L43.04 3.46Q43.44 3.30 43.90 3.20L43.90 3.20L43.90 3.20Q44.35 3.09 44.84 3.09L44.84 3.09L44.84 3.09Q45.47 3.09 46.14 3.23L46.14 3.23L46.14 3.23Q46.82 3.36 47.37 3.69L47.37 3.69L47.37 3.69Q47.92 4.02 48.28 4.58L48.28 4.58L48.28 4.58Q48.64 5.14 48.64 5.98L48.64 5.98L48.64 8.71L49.48 8.71L49.48 10.50L46.48 10.50L46.14 9.87L46.14 9.87Q45.95 10.14 45.70 10.31L45.70 10.31L45.70 10.31Q45.46 10.49 45.20 10.58L45.20 10.58L45.20 10.58Q44.94 10.68 44.69 10.72L44.69 10.72L44.69 10.72Q44.44 10.77 44.25 10.77L44.25 10.77L44.25 10.77Q43.75 10.77 43.26 10.63L43.26 10.63L43.26 10.63Q42.77 10.49 42.38 10.21L42.38 10.21L42.38 10.21Q41.99 9.93 41.74 9.48L41.74 9.48L41.74 9.48Q41.50 9.04 41.50 8.43L41.50 8.43L41.50 8.43Q41.50 7.84 41.73 7.36L41.73 7.36L41.73 7.36Q41.96 6.89 42.36 6.55L42.36 6.55L42.36 6.55Q42.76 6.22 43.29 6.03L43.29 6.03L43.29 6.03Q43.82 5.85 44.41 5.85L44.41 5.85L44.41 5.85Q44.72 5.85 44.96 5.92L44.96 5.92L44.96 5.92Q45.21 5.98 45.38 6.06L45.38 6.06L45.38 6.06Q45.56 6.15 45.66 6.23L45.66 6.23L45.66 6.23Q45.77 6.31 45.79 6.34L45.79 6.34L45.79 5.85L45.79 5.85Q45.79 5.38 45.42 5.22L45.42 5.22L45.42 5.22Q45.04 5.07 44.46 5.07L44.46 5.07L44.46 5.07Q43.83 5.07 43.31 5.28L43.31 5.28L43.31 5.28Q42.78 5.49 42.38 5.71L42.38 5.71ZM44.90 8.95L44.90 8.95L44.90 8.95Q45.22 8.95 45.46 8.79L45.46 8.79L45.46 8.79Q45.70 8.64 45.79 8.48L45.79 8.48L45.79 7.95L45.79 7.95Q45.78 7.92 45.73 7.86L45.73 7.86L45.73 7.86Q45.68 7.80 45.58 7.73L45.58 7.73L45.58 7.73Q45.49 7.66 45.34 7.60L45.34 7.60L45.34 7.60Q45.19 7.55 44.97 7.55L44.97 7.55L44.97 7.55Q44.55 7.55 44.35 7.76L44.35 7.76L44.35 7.76Q44.16 7.97 44.16 8.29L44.16 8.29L44.16 8.29Q44.16 8.58 44.37 8.76L44.37 8.76L44.37 8.76Q44.58 8.95 44.90 8.95ZM54.35 8.67L54.35 10.50L50.04 10.50L50.04 8.67L50.62 8.67L50.62 5.32L50.04 5.32L50.04 3.50L53.02 3.50L53.34 4.37L53.34 4.37Q53.70 3.88 54.19 3.56L54.19 3.56L54.19 3.56Q54.67 3.25 55.34 3.25L55.34 3.25L55.34 3.25Q56.15 3.25 56.65 3.52L56.65 3.52L56.65 3.52Q57.15 3.79 57.42 4.23L57.42 4.23L57.42 4.23Q57.69 4.68 57.78 5.23L57.78 5.23L57.78 5.23Q57.88 5.78 57.88 6.33L57.88 6.33L57.88 8.67L58.53 8.67L58.53 10.50L55.01 10.50L55.01 6.68L55.01 6.68Q55.01 6.50 55.00 6.27L55.00 6.27L55.00 6.27Q54.99 6.05 54.92 5.85L54.92 5.85L54.92 5.85Q54.85 5.66 54.69 5.52L54.69 5.52L54.69 5.52Q54.53 5.38 54.22 5.38L54.22 5.38L54.22 5.38Q53.96 5.38 53.78 5.50L53.78 5.50L53.78 5.50Q53.61 5.61 53.51 5.80L53.51 5.80L53.51 5.80Q53.41 5.99 53.38 6.22L53.38 6.22L53.38 6.22Q53.34 6.45 53.34 6.68L53.34 6.68L53.34 8.67L54.35 8.67ZM63.78 6.66L63.78 6.66L63.78 6.66Q63.77 6.41 63.72 6.15L63.72 6.15L63.72 6.15Q63.67 5.89 63.57 5.68L63.57 5.68L63.57 5.68Q63.48 5.46 63.31 5.33L63.31 5.33L63.31 5.33Q63.14 5.19 62.90 5.19L62.90 5.19L62.90 5.19Q62.59 5.19 62.36 5.35L62.36 5.35L62.36 5.35Q62.13 5.50 61.98 5.75L61.98 5.75L61.98 5.75Q61.82 6.01 61.75 6.33L61.75 6.33L61.75 6.33Q61.67 6.65 61.67 6.99L61.67 6.99L61.67 6.99Q61.67 7.67 62.05 8.15L62.05 8.15L62.05 8.15Q62.44 8.62 63.11 8.64L63.11 8.64L63.11 8.64Q63.67 8.65 64.06 8.44L64.06 8.44L64.06 8.44Q64.46 8.22 64.81 7.84L64.81 7.84L66.04 9.27L66.04 9.27Q65.79 9.53 65.44 9.79L65.44 9.79L65.44 9.79Q65.09 10.05 64.64 10.25L64.64 10.25L64.64 10.25Q64.20 10.44 63.69 10.57L63.69 10.57L63.69 10.57Q63.17 10.70 62.61 10.70L62.61 10.70L62.61 10.70Q61.84 10.70 61.14 10.46L61.14 10.46L61.14 10.46Q60.44 10.23 59.91 9.77L59.91 9.77L59.91 9.77Q59.39 9.30 59.07 8.60L59.07 8.60L59.07 8.60Q58.76 7.90 58.76 6.96L58.76 6.96L58.76 6.96Q58.76 6.03 59.05 5.35L59.05 5.35L59.05 5.35Q59.33 4.68 59.81 4.23L59.81 4.23L59.81 4.23Q60.28 3.79 60.91 3.58L60.91 3.58L60.91 3.58Q61.53 3.37 62.20 3.37L62.20 3.37L62.20 3.37Q62.55 3.37 62.84 3.46L62.84 3.46L62.84 3.46Q63.13 3.54 63.34 3.67L63.34 3.67L63.34 3.67Q63.56 3.79 63.71 3.93L63.71 3.93L63.71 3.93Q63.87 4.07 63.95 4.17L63.95 4.17L64.19 3.50L65.84 3.50L65.84 6.66L63.78 6.66ZM72.38 8.18L73.56 9.53L73.56 9.53Q72.77 10.21 71.90 10.48L71.90 10.48L71.90 10.48Q71.04 10.75 69.94 10.75L69.94 10.75L69.94 10.75Q69.29 10.75 68.63 10.54L68.63 10.54L68.63 10.54Q67.97 10.32 67.44 9.86L67.44 9.86L67.44 9.86Q66.92 9.41 66.58 8.69L66.58 8.69L66.58 8.69Q66.25 7.97 66.25 6.96L66.25 6.96L66.25 6.96Q66.25 6.10 66.54 5.42L66.54 5.42L66.54 5.42Q66.84 4.75 67.34 4.27L67.34 4.27L67.34 4.27Q67.84 3.79 68.53 3.55L68.53 3.55L68.53 3.55Q69.22 3.30 70.01 3.30L70.01 3.30L70.01 3.30Q70.64 3.30 71.18 3.46L71.18 3.46L71.18 3.46Q71.72 3.61 72.16 3.88L72.16 3.88L72.16 3.88Q72.59 4.14 72.90 4.52L72.90 4.52L72.90 4.52Q73.21 4.90 73.36 5.33L73.36 5.33L73.36 5.33Q73.42 5.52 73.47 5.80L73.47 5.80L73.47 5.80Q73.53 6.08 73.55 6.40L73.55 6.40L73.55 6.40Q73.57 6.72 73.53 7.06L73.53 7.06L73.53 7.06Q73.50 7.41 73.39 7.70L73.39 7.70L68.98 7.70L68.98 7.70Q69.01 7.84 69.07 8.04L69.07 8.04L69.07 8.04Q69.13 8.23 69.29 8.41L69.29 8.41L69.29 8.41Q69.44 8.60 69.71 8.72L69.71 8.72L69.71 8.72Q69.97 8.85 70.42 8.85L70.42 8.85L70.42 8.85Q70.60 8.85 70.82 8.83L70.82 8.83L70.82 8.83Q71.04 8.82 71.29 8.75L71.29 8.75L71.29 8.75Q71.54 8.68 71.82 8.55L71.82 8.55L71.82 8.55Q72.10 8.41 72.38 8.18L72.38 8.18ZM70.10 5.19L70.10 5.19L70.10 5.19Q69.78 5.19 69.57 5.32L69.57 5.32L69.57 5.32Q69.37 5.45 69.25 5.62L69.25 5.62L69.25 5.62Q69.13 5.80 69.08 5.99L69.08 5.99L69.08 5.99Q69.03 6.19 69.02 6.31L69.02 6.31L71.13 6.31L71.13 6.31Q71.13 6.12 71.09 5.92L71.09 5.92L71.09 5.92Q71.05 5.71 70.94 5.55L70.94 5.55L70.94 5.55Q70.84 5.39 70.64 5.29L70.64 5.29L70.64 5.29Q70.43 5.19 70.10 5.19ZM77.35 10.50L74.20 10.50L74.20 8.68L74.79 8.68L74.79 1.83L74.20 1.83L74.20 0L77.59 0L77.59 4.05L77.59 4.05Q77.70 3.91 77.90 3.79L77.90 3.79L77.90 3.79Q78.11 3.67 78.36 3.58L78.36 3.58L78.36 3.58Q78.61 3.49 78.89 3.44L78.89 3.44L78.89 3.44Q79.17 3.39 79.42 3.39L79.42 3.39L79.42 3.39Q80.22 3.39 80.83 3.70L80.83 3.70L80.83 3.70Q81.44 4.00 81.84 4.51L81.84 4.51L81.84 4.51Q82.25 5.03 82.45 5.69L82.45 5.69L82.45 5.69Q82.66 6.36 82.64 7.06L82.64 7.06L82.64 7.06Q82.63 7.87 82.40 8.53L82.40 8.53L82.40 8.53Q82.17 9.20 81.75 9.67L81.75 9.67L81.75 9.67Q81.33 10.14 80.74 10.39L80.74 10.39L80.74 10.39Q80.15 10.65 79.41 10.65L79.41 10.65L79.41 10.65Q79.00 10.65 78.72 10.61L78.72 10.61L78.72 10.61Q78.44 10.56 78.23 10.46L78.23 10.46L78.23 10.46Q78.02 10.37 77.86 10.26L77.86 10.26L77.86 10.26Q77.70 10.15 77.56 10.02L77.56 10.02L77.35 10.50ZM79.56 7.08L79.56 7.08L79.56 7.08Q79.56 6.78 79.49 6.46L79.49 6.46L79.49 6.46Q79.42 6.15 79.29 5.91L79.29 5.91L79.29 5.91Q79.16 5.67 78.97 5.52L78.97 5.52L78.97 5.52Q78.78 5.36 78.55 5.36L78.55 5.36L78.55 5.36Q78.34 5.36 78.15 5.49L78.15 5.49L78.15 5.49Q77.97 5.61 77.83 5.84L77.83 5.84L77.83 5.84Q77.69 6.08 77.61 6.41L77.61 6.41L77.61 6.41Q77.53 6.73 77.56 7.15L77.56 7.15L77.56 7.15Q77.56 7.52 77.64 7.82L77.64 7.82L77.64 7.82Q77.73 8.12 77.87 8.35L77.87 8.35L77.87 8.35Q78.01 8.58 78.19 8.71L78.19 8.71L78.19 8.71Q78.37 8.83 78.57 8.83L78.57 8.83L78.57 8.83Q79.02 8.83 79.29 8.36L79.29 8.36L79.29 8.36Q79.56 7.88 79.56 7.08ZM84.04 5.71L83.45 4.09L83.45 4.09Q83.66 3.96 83.99 3.79L83.99 3.79L83.99 3.79Q84.31 3.63 84.71 3.46L84.71 3.46L84.71 3.46Q85.11 3.30 85.56 3.20L85.56 3.20L85.56 3.20Q86.02 3.09 86.51 3.09L86.51 3.09L86.51 3.09Q87.14 3.09 87.81 3.23L87.81 3.23L87.81 3.23Q88.48 3.36 89.03 3.69L89.03 3.69L89.03 3.69Q89.59 4.02 89.94 4.58L89.94 4.58L89.94 4.58Q90.30 5.14 90.30 5.98L90.30 5.98L90.30 8.71L91.14 8.71L91.14 10.50L88.14 10.50L87.81 9.87L87.81 9.87Q87.61 10.14 87.37 10.31L87.37 10.31L87.37 10.31Q87.12 10.49 86.86 10.58L86.86 10.58L86.86 10.58Q86.60 10.68 86.35 10.72L86.35 10.72L86.35 10.72Q86.10 10.77 85.92 10.77L85.92 10.77L85.92 10.77Q85.41 10.77 84.92 10.63L84.92 10.63L84.92 10.63Q84.43 10.49 84.04 10.21L84.04 10.21L84.04 10.21Q83.65 9.93 83.40 9.48L83.40 9.48L83.40 9.48Q83.16 9.04 83.16 8.43L83.16 8.43L83.16 8.43Q83.16 7.84 83.39 7.36L83.39 7.36L83.39 7.36Q83.62 6.89 84.02 6.55L84.02 6.55L84.02 6.55Q84.42 6.22 84.95 6.03L84.95 6.03L84.95 6.03Q85.48 5.85 86.07 5.85L86.07 5.85L86.07 5.85Q86.38 5.85 86.62 5.92L86.62 5.92L86.62 5.92Q86.87 5.98 87.04 6.06L87.04 6.06L87.04 6.06Q87.22 6.15 87.32 6.23L87.32 6.23L87.32 6.23Q87.43 6.31 87.46 6.34L87.46 6.34L87.46 5.85L87.46 5.85Q87.46 5.38 87.08 5.22L87.08 5.22L87.08 5.22Q86.70 5.07 86.13 5.07L86.13 5.07L86.13 5.07Q85.50 5.07 84.97 5.28L84.97 5.28L84.97 5.28Q84.45 5.49 84.04 5.71L84.04 5.71ZM86.56 8.95L86.56 8.95L86.56 8.95Q86.88 8.95 87.12 8.79L87.12 8.79L87.12 8.79Q87.36 8.64 87.46 8.48L87.46 8.48L87.46 7.95L87.46 7.95Q87.44 7.92 87.39 7.86L87.39 7.86L87.39 7.86Q87.35 7.80 87.25 7.73L87.25 7.73L87.25 7.73Q87.15 7.66 87.00 7.60L87.00 7.60L87.00 7.60Q86.86 7.55 86.63 7.55L86.63 7.55L86.63 7.55Q86.21 7.55 86.02 7.76L86.02 7.76L86.02 7.76Q85.82 7.97 85.82 8.29L85.82 8.29L85.82 8.29Q85.82 8.58 86.03 8.76L86.03 8.76L86.03 8.76Q86.24 8.95 86.56 8.95ZM96.01 8.67L96.01 10.50L91.70 10.50L91.70 8.67L92.29 8.67L92.29 5.32L91.70 5.32L91.70 3.50L94.68 3.50L95.00 4.37L95.00 4.37Q95.37 3.88 95.85 3.56L95.85 3.56L95.85 3.56Q96.33 3.25 97.01 3.25L97.01 3.25L97.01 3.25Q97.82 3.25 98.31 3.52L98.31 3.52L98.31 3.52Q98.81 3.79 99.08 4.23L99.08 4.23L99.08 4.23Q99.36 4.68 99.45 5.23L99.45 5.23L99.45 5.23Q99.54 5.78 99.54 6.33L99.54 6.33L99.54 8.67L100.20 8.67L100.20 10.50L96.67 10.50L96.67 6.68L96.67 6.68Q96.67 6.50 96.66 6.27L96.66 6.27L96.66 6.27Q96.66 6.05 96.59 5.85L96.59 5.85L96.59 5.85Q96.52 5.66 96.35 5.52L96.35 5.52L96.35 5.52Q96.19 5.38 95.89 5.38L95.89 5.38L95.89 5.38Q95.62 5.38 95.44 5.50L95.44 5.50L95.44 5.50Q95.27 5.61 95.17 5.80L95.17 5.80L95.17 5.80Q95.07 5.99 95.04 6.22L95.04 6.22L95.04 6.22Q95.00 6.45 95.00 6.68L95.00 6.68L95.00 8.67L96.01 8.67ZM104.68 10.50L100.94 10.50L100.94 8.68L101.51 8.68L101.51 1.83L100.94 1.83L100.94 0L104.17 0L104.17 6.33L105.80 5.36L104.79 5.36L104.79 3.51L108.71 3.51L108.71 5.36L107.63 5.36L106.68 5.96L108.57 8.67L109.27 8.67L109.27 10.50L105.13 10.50L105.13 8.67L105.71 8.67L104.65 7.15L104.16 7.49L104.16 8.67L104.68 8.67L104.68 10.50Z"></path></g><!----><g data-v-423bf9ae="" id="ad7c35c0-2a88-4bf5-bd58-c2bd02e840fb" transform="matrix(2.8125,0,0,2.8125,0,0)" stroke="none" fill="#ffffff"><path d="M9.571 20.464l8.064 4.47 8.065-4.47v-8.939l-8.065-4.469-8.064 4.469z"></path><path d="M32 0H0v32h32l-5.054-5.172H5.054V5.172h21.892z"></path></g><!----></svg>